<svg width="24" height="24" viewBox="0 0 24 24" fill="none" xmlns="http://www.w3.org/2000/svg">
<g clip-path="url(#clip0_407_128)">
<path fill-rule="evenodd" clip-rule="evenodd" d="M12 24C18.6271 24 24 18.6271 24 12C24 5.3725 18.6271 0 12 0C5.3725 0 0 5.37209 0 12C0 18.6271 5.37209 24 12 24ZM10.2 12H13.5997C13.8361 12 14.0701 11.9535 14.2885 11.863C14.5069 11.7726 14.7053 11.64 14.8725 11.4728C15.0396 11.3057 15.1722 11.1073 15.2627 10.8889C15.3531 10.6705 15.3997 10.4364 15.3997 10.2C15.3997 9.96367 15.3531 9.7296 15.2627 9.51122C15.1722 9.29283 15.0396 9.0944 14.8725 8.92726C14.7053 8.76011 14.5069 8.62752 14.2885 8.53707C14.0701 8.44661 13.8361 8.40005 13.5997 8.40005H10.2V12ZM7.79996 6.00005H13.5997C15.9192 6.00005 17.7997 7.88049 17.7997 10.2C17.7997 12.5196 15.9192 14.4 13.5997 14.4H10.2V18H7.79996V6.00005Z" fill="white"/>
</g>
<defs>
<clipPath id="clip0_407_128">
<rect width="24" height="24" fill="white"/>
</clipPath>
</defs>
</svg>
